<svg xmlns="http://www.w3.org/2000/svg" width="37.142" height="31.919" viewBox="0 0 37.142 31.919">
  <g id="Group_76492" data-name="Group 76492" transform="translate(2700.809 -381)">
    <path id="Path_2504" data-name="Path 2504" d="M1.681,4.818C.759,4.818.1,5.207.1,5.781v7.811c0,.492.656.984,1.579.984.882,0,1.6-.492,1.6-.984V5.781C3.28,5.207,2.563,4.818,1.681,4.818ZM1.681,0A1.588,1.588,0,0,0,0,1.456,1.6,1.6,0,0,0,1.681,2.932,1.6,1.6,0,0,0,3.342,1.456,1.582,1.582,0,0,0,1.681,0Z" transform="translate(-2677.726 404.237) rotate(180)" fill="#4e4e4e"/>
    <path id="Path_2505" data-name="Path 2505" d="M15.959,0a15.951,15.951,0,0,0-4.83,31.156l3.629,5.35a1.451,1.451,0,0,0,2.4,0l3.629-5.35A15.951,15.951,0,0,0,15.959,0Zm3.529,28.517a1.451,1.451,0,0,0-.81.583l-2.719,4.008L13.241,29.1a1.451,1.451,0,0,0-.81-.583,13.058,13.058,0,1,1,7.058,0Z" transform="translate(-2663.667 381) rotate(90)" fill="#4e4e4e"/>
  </g>
</svg>
