<svg xmlns="http://www.w3.org/2000/svg" width="28.708" height="28.703" viewBox="0 0 28.708 28.703">
  <g id="svgexport-17_39_" data-name="svgexport-17 (39)" transform="translate(-0.25 -0.25)">
    <path id="Path_25565" data-name="Path 25565" d="M9.97,12.567H2.936A2.689,2.689,0,0,1,.25,9.882V2.936A2.689,2.689,0,0,1,2.936.25H9.97a2.689,2.689,0,0,1,2.686,2.686V9.882A2.689,2.689,0,0,1,9.97,12.567ZM2.936,2.33a.607.607,0,0,0-.607.606V9.882a.607.607,0,0,0,.607.606H9.97a.607.607,0,0,0,.606-.606V2.936A.607.607,0,0,0,9.97,2.33ZM10,28.953H2.971A2.69,2.69,0,0,1,.284,26.267V19.322a2.689,2.689,0,0,1,2.686-2.686H10a2.689,2.689,0,0,1,2.684,2.686v6.945A2.689,2.689,0,0,1,10,28.953ZM2.971,18.716a.607.607,0,0,0-.607.606v6.945a.607.607,0,0,0,.607.607H10a.607.607,0,0,0,.606-.607V19.322A.607.607,0,0,0,10,18.716Zm23.3,10.238H19.234a2.69,2.69,0,0,1-2.686-2.686V19.322a2.689,2.689,0,0,1,2.686-2.686h7.034a2.689,2.689,0,0,1,2.686,2.686v6.945a2.689,2.689,0,0,1-2.686,2.686ZM19.234,18.72a.607.607,0,0,0-.607.606v6.945a.607.607,0,0,0,.607.607h7.034a.607.607,0,0,0,.606-.607v-6.95a.607.607,0,0,0-.606-.606Zm3.521-6.153a6.157,6.157,0,1,1,6.2-6.157,6.157,6.157,0,0,1-6.2,6.157Zm0-10.233a4.077,4.077,0,1,0,4.122,4.077,4.077,4.077,0,0,0-4.122-4.077Z" transform="translate(0 0)" fill="#4e4e4e"/>
  </g>
</svg>
