<svg xmlns="http://www.w3.org/2000/svg" width="217.594" height="937.002" viewBox="0 0 217.594 937.002">
  <path id="Exclusion_1" data-name="Exclusion 1" d="M1047.594,937H830l0-.037c.142-1.632.95-10.49,2.916-24.676s5.524-36.7,11.293-63.226a789.936,789.936,0,0,1,23.481-85.372c5.4-15.933,11.29-31.368,17.5-45.875,6.833-15.958,14.228-31.191,21.978-45.274C970.758,557,1044.486,473.306,1047.594,469.8V937Zm0-467.472h0v0c-3.111-5.311-76.927-131.386-140.421-244.835a665.511,665.511,0,0,1-39.48-84.105,702.181,702.181,0,0,1-23.481-71.793c-5.77-21.52-9.326-39.078-11.293-50.017C830.791,6.953,830.007.068,830,0h217.594Z" transform="translate(-830)" fill="#fff"/>
</svg>
