<svg xmlns="http://www.w3.org/2000/svg" width="308.66" height="63.426" viewBox="0 0 308.66 63.426">
  <g id="Layer_2" data-name="Layer 2" transform="translate(-296.683)">
    <g id="Layer_1" data-name="Layer 1" transform="translate(222.01)">
      <path id="Path_1" data-name="Path 1" d="M315.459,156.889h-.046a2.827,2.827,0,0,1-2.219-1.007l-5.739-6.6a1.414,1.414,0,0,1,.079-1.922l4.512-4.346a3.037,3.037,0,0,1,2.188-.931,1.125,1.125,0,0,0,.854-.389,1.321,1.321,0,0,0,.371-.946v-.79a1.3,1.3,0,0,0-.4-.948,1.278,1.278,0,0,0-.933-.386h-6.731a1.278,1.278,0,0,0-.946.386,1.33,1.33,0,0,0-.389.948v.79a1.822,1.822,0,0,0,.233.946.668.668,0,0,0,.56.389c.215,0,.309.095.281.276a1.4,1.4,0,0,1-.437.67l-3.924,3.9c-.256.256-.478.355-.664.281s-.281-.3-.281-.667v-3.131a1.35,1.35,0,0,1,1.334-1.334h.031a1.329,1.329,0,0,0,.946-.389,1.277,1.277,0,0,0,.389-.946v-.79a1.321,1.321,0,0,0-1.334-1.334h-6.718a1.322,1.322,0,0,0-1.334,1.334v.79a1.278,1.278,0,0,0,.389.946,1.329,1.329,0,0,0,.946.389h.031a1.349,1.349,0,0,1,1.334,1.334v12.142a1.278,1.278,0,0,1-.389.946,1.311,1.311,0,0,1-.946.389h-.031a1.327,1.327,0,0,0-1.334,1.334v.79a1.278,1.278,0,0,0,.389.946,1.319,1.319,0,0,0,.946.389h6.718a1.319,1.319,0,0,0,.946-.389,1.277,1.277,0,0,0,.389-.946v-.79a1.327,1.327,0,0,0-1.334-1.334h-.031a1.327,1.327,0,0,1-1.334-1.334v-1.334a3.068,3.068,0,0,1,.946-2.265l.031-.031a1.24,1.24,0,0,1,.93-.373,1.278,1.278,0,0,1,.9.437l3.408,3.893a1.606,1.606,0,0,1,.406.711c.02.2-.074.3-.281.3a.624.624,0,0,0-.527.389,1.956,1.956,0,0,0-.217.946v.79a1.327,1.327,0,0,0,1.334,1.334h6.7a1.278,1.278,0,0,0,.946-.389,1.252,1.252,0,0,0,.4-.946v-.79a1.352,1.352,0,0,0-1.35-1.334" transform="translate(-219.694 -103.185)"/>
      <path id="Path_2" data-name="Path 2" d="M400.968,172.036a.7.7,0,0,1-.606-.386,1.648,1.648,0,0,1-.256-.943V165.3a16.421,16.421,0,0,0-.125-2.418,4.738,4.738,0,0,0-.9-2,4.787,4.787,0,0,0-2.014-1.316,8.608,8.608,0,0,0-3.106-.56,9.864,9.864,0,0,0-3.443.649,5.856,5.856,0,0,0-3.182,2.871c-.565,1.148-.386,1.884.544,2.214l1.132.156c.716.023,1.125-.2,1.24-.68a2.2,2.2,0,0,1,1.83-1.641c.879-.115,1.419-.171,1.613-.171a3.374,3.374,0,0,1,2.14.728c.3.289.46,1.161.483,2.607a10.7,10.7,0,0,0-1.909-.141c-.361,0-.746.015-1.163.046a10.062,10.062,0,0,0-5.194,1.38,4.537,4.537,0,0,0-2.058,3.955,4.359,4.359,0,0,0,1.789,3.691,6.386,6.386,0,0,0,3.909,1.163,8.513,8.513,0,0,0,3.834-1.053,1.687,1.687,0,0,1,.882-.217c.268,0,.424.1.465.279a.8.8,0,0,0,.5.478,2.488,2.488,0,0,0,.992.187h2.127a1.34,1.34,0,0,0,1.334-1.34v-.795a1.741,1.741,0,0,0-.256-.946.744.744,0,0,0-.6-.389m-5-1.429a3.215,3.215,0,0,1-1.49,1.5,4.6,4.6,0,0,1-2.185.511,3.044,3.044,0,0,1-1.69-.435,1.474,1.474,0,0,1-.667-1.278q0-1.633,2.556-2.221a9.186,9.186,0,0,1,2.139-.276,5.877,5.877,0,0,1,1.677.23,5.4,5.4,0,0,1-.342,1.971" transform="translate(-287.319 -118.355)"/>
      <path id="Path_3" data-name="Path 3" d="M460.775,156.912a.864.864,0,0,1-.7-.388,1.534,1.534,0,0,1-.292-.946V139.984a1.313,1.313,0,0,0-.4-.948,1.278,1.278,0,0,0-.93-.386h-3.116A1.319,1.319,0,0,0,454,139.984v.79a1.534,1.534,0,0,0,.292.946.879.879,0,0,0,.716.389.852.852,0,0,1,.7.4,1.513,1.513,0,0,1,.294.933v12.142a1.535,1.535,0,0,1-.294.946.864.864,0,0,1-.7.389.879.879,0,0,0-.716.389,1.575,1.575,0,0,0-.292.946v.79a1.278,1.278,0,0,0,.386.946,1.306,1.306,0,0,0,.948.388h5.112a1.327,1.327,0,0,0,1.334-1.334v-.79a1.574,1.574,0,0,0-.294-.946.879.879,0,0,0-.713-.389" transform="translate(-337.944 -103.207)"/>
      <path id="Path_4" data-name="Path 4" d="M498.074,159.233a6.84,6.84,0,0,0-5.644,2.579,9.066,9.066,0,0,0-1.91,5.936,8.67,8.67,0,0,0,1.968,5.879A7.278,7.278,0,0,0,498.214,176a7.079,7.079,0,0,0,4.711-2.06,14.561,14.561,0,0,0,1.552-2.045c.36-.767.1-1.163-.79-1.163h-2.761a2.942,2.942,0,0,1-2.7,1.953,3.387,3.387,0,0,1-2.763-1.278,3.253,3.253,0,0,1-.68-1.209.982.982,0,0,1,.156-.915,1,1,0,0,1,.836-.373h8.3a1.594,1.594,0,0,0,1.058-.368,1.644,1.644,0,0,0,.322-1,9.234,9.234,0,0,0-1.611-5.442,6.609,6.609,0,0,0-5.769-2.871m2.883,6.135a1.007,1.007,0,0,1-.836.373H494.6a3.956,3.956,0,0,1,1.023-2.124,3.239,3.239,0,0,1,2.482-1.058,3.068,3.068,0,0,1,2.421,1.043,2.419,2.419,0,0,1,.557.851,1,1,0,0,1-.125.915" transform="translate(-365.131 -118.527)"/>
      <path id="Path_5" data-name="Path 5" d="M579.623,172.29a.879.879,0,0,1-.713-.389,1.534,1.534,0,0,1-.294-.946v-6.017a5.907,5.907,0,0,0-1.278-4.016,4.944,4.944,0,0,0-3.952-1.613,5.733,5.733,0,0,0-4.455,2.045,4.682,4.682,0,0,0-4.31-2.045,5.5,5.5,0,0,0-3.111.943,1.722,1.722,0,0,1-.856.343.445.445,0,0,1-.494-.256q-.256-.667-1.582-.667h-2.234a1.321,1.321,0,0,0-.946.386,1.294,1.294,0,0,0-.389.948v.78a1.449,1.449,0,0,0,.327.946.994.994,0,0,0,.79.389,1,1,0,0,1,.792.386,1.482,1.482,0,0,1,.327.948v6.5a1.515,1.515,0,0,1-.3.946.88.88,0,0,1-.716.389.867.867,0,0,0-.711.389,1.56,1.56,0,0,0-.3.946v.79a1.327,1.327,0,0,0,1.334,1.334h5.112a1.318,1.318,0,0,0,.946-.389,1.278,1.278,0,0,0,.389-.946v-.79a1.559,1.559,0,0,0-.3-.946.867.867,0,0,0-.7-.389.869.869,0,0,1-.716-.389,1.513,1.513,0,0,1-.3-.946v-3.517a8.233,8.233,0,0,1,.389-2.9,2.556,2.556,0,0,1,1.023-1.3,2.92,2.92,0,0,1,1.641-.483,1.547,1.547,0,0,1,1.334.716,2,2,0,0,1,.343.729,10.657,10.657,0,0,1,.327,2.623v7.6a1.327,1.327,0,0,0,1.329,1.334h3.091a1.327,1.327,0,0,0,1.332-1.334v-.79a1.559,1.559,0,0,0-.294-.946.834.834,0,0,0-.7-.389.859.859,0,0,1-.7-.389,1.587,1.587,0,0,1-.281-.946v-4.466a4.4,4.4,0,0,1,.716-2.653,2.64,2.64,0,0,1,2.265-1.086,1.746,1.746,0,0,1,1.828,1.071,2.319,2.319,0,0,1,.141.621q.046,1.334.046,2.666v7.306a1.327,1.327,0,0,0,1.334,1.334h3.121a1.278,1.278,0,0,0,.948-.389,1.259,1.259,0,0,0,.4-.946v-.79a1.533,1.533,0,0,0-.307-.946.882.882,0,0,0-.716-.389" transform="translate(-413.134 -118.585)"/>
      <path id="Path_6" data-name="Path 6" d="M676.348,172.036a.7.7,0,0,1-.6-.386,1.652,1.652,0,0,1-.255-.943V165.3a16.092,16.092,0,0,0-.125-2.418,4.74,4.74,0,0,0-.9-2,4.8,4.8,0,0,0-2.014-1.316,8.622,8.622,0,0,0-3.114-.56,9.864,9.864,0,0,0-3.443.649,5.855,5.855,0,0,0-3.182,2.871c-.565,1.148-.389,1.884.544,2.214l1.132.156q1.069.033,1.238-.68a2.706,2.706,0,0,1,.895-1.278,2.659,2.659,0,0,1,.938-.363c.879-.115,1.419-.171,1.613-.171a3.38,3.38,0,0,1,2.14.729c.3.289.46,1.16.48,2.607a10.646,10.646,0,0,0-1.907-.141c-.36,0-.749.015-1.163.046a10.062,10.062,0,0,0-5.194,1.38,4.532,4.532,0,0,0-2.065,3.97,4.361,4.361,0,0,0,1.789,3.691,6.347,6.347,0,0,0,3.906,1.163,8.525,8.525,0,0,0,3.834-1.053,1.7,1.7,0,0,1,.882-.217c.271,0,.427.1.468.279a.8.8,0,0,0,.493.478,2.494,2.494,0,0,0,1,.187h2.124a1.312,1.312,0,0,0,.953-.412,1.278,1.278,0,0,0,.386-.943v-.795a1.759,1.759,0,0,0-.256-.946.746.746,0,0,0-.59-.383M671.34,170.6a3.238,3.238,0,0,1-1.49,1.5,4.616,4.616,0,0,1-2.186.511,3.047,3.047,0,0,1-1.692-.435,1.472,1.472,0,0,1-.665-1.278q0-1.633,2.556-2.221A9.187,9.187,0,0,1,670,168.4a5.878,5.878,0,0,1,1.677.23,5.4,5.4,0,0,1-.343,1.971" transform="translate(-492.298 -118.355)"/>
      <path id="Path_7" data-name="Path 7" d="M736.562,144.437a1.24,1.24,0,0,1-.931-.4,1.3,1.3,0,0,1-.373-.93v-3.068c0-.363-.1-.593-.307-.7s-.457-.041-.746.187l-1.662,1.3a2.6,2.6,0,0,0-1.05,2.157v.107a1.462,1.462,0,0,1-.312.93.915.915,0,0,1-.746.4.938.938,0,0,0-.767.389,1.477,1.477,0,0,0-.309.946v.527a1.484,1.484,0,0,0,.309.948.943.943,0,0,0,.767.386.915.915,0,0,1,.746.4,1.45,1.45,0,0,1,.312.93v6.7a9.054,9.054,0,0,0,.37,3.226q.833,1.956,3.579,1.956h.575c.877-.123,1.391-.2,1.534-.233s.233-.491.233-1.38v-.869a2,2,0,0,0-.186-.913c-.123-.24-.256-.345-.432-.327l-.511.077c-.412.023-.662.038-.741.049a.611.611,0,0,1-.575-.312l-.049-.125c0-.67-.016-1.452-.016-2.341v-5.491a1.29,1.29,0,0,1,.374-.931,1.239,1.239,0,0,1,.93-.4,1.253,1.253,0,0,0,.915-.386,1.278,1.278,0,0,0,.388-.948v-.527a1.279,1.279,0,0,0-.388-.946,1.245,1.245,0,0,0-.915-.389" transform="translate(-542.915 -103.683)"/>
      <path id="Path_8" data-name="Path 8" d="M821.978,156.882q-.81,0-1.278-1.24l-6.186-15.787a2.135,2.135,0,0,0-1.818-1.245h-3.313a1.279,1.279,0,0,0-.93.389,1.3,1.3,0,0,0-.4.946v.792c0,.887.143,1.332.437,1.332.12,0,.187.128.187.373a3.183,3.183,0,0,1-.2.887L804,155.627a2.017,2.017,0,0,1-.588.882,1.107,1.107,0,0,1-.767.373.751.751,0,0,0-.621.386,1.711,1.711,0,0,0-.256.948v.79a1.279,1.279,0,0,0,.386.946,1.317,1.317,0,0,0,.949.389h4.248a1.352,1.352,0,0,0,1.334-1.334v-.79a3.014,3.014,0,0,0-.141-.948c-.094-.256-.207-.386-.343-.386s-.2-.123-.2-.373a2.336,2.336,0,0,1,.171-.882l.092-.233a1.9,1.9,0,0,1,.7-.884,1.879,1.879,0,0,1,1.089-.373h4.328a1.872,1.872,0,0,1,1.087.373,1.8,1.8,0,0,1,.729.867l.107.256a2.91,2.91,0,0,1,.2.867c0,.256-.062.373-.187.373s-.228.128-.309.386a2.871,2.871,0,0,0-.141.948V159a1.252,1.252,0,0,0,.4.946,1.278,1.278,0,0,0,.931.388h4.251a1.328,1.328,0,0,0,.946-.388,1.277,1.277,0,0,0,.386-.946v-.79a1.861,1.861,0,0,0-.23-.948.672.672,0,0,0-.575-.386m-8.034-6.58a.938.938,0,0,1-.82.371h-1.864a.943.943,0,0,1-.82-.371.974.974,0,0,1-.095-.9l1.475-4.45c.113-.35.256-.529.417-.529s.289.179.4.529l1.414,4.45a.954.954,0,0,1-.11.9" transform="translate(-596.815 -103.178)"/>
      <path id="Path_9" data-name="Path 9" d="M904.948,159.485h-1.969a2.023,2.023,0,0,0-1.089.337,1.941,1.941,0,0,0-.729.856,5.769,5.769,0,0,0-4.049-1.552,6.277,6.277,0,0,0-5.335,2.648,9.251,9.251,0,0,0-1.738,5.665,8.678,8.678,0,0,0,1.779,5.583,6.375,6.375,0,0,0,5.286,2.543,5.71,5.71,0,0,0,3.474-1.117,7.692,7.692,0,0,1-.169,1.628q-.591,2.155-3.364,2.155c-1.138,0-1.835-.215-2.1-.649a6.852,6.852,0,0,1-.729-1.365c-.023-.153-.476-.235-1.365-.235h-.976a2.317,2.317,0,0,0-.946.171c-.255.1-.383.233-.373.389a4.644,4.644,0,0,0,2.139,3.911,7.762,7.762,0,0,0,4.361,1.148q4.857,0,6.559-3.479a11.721,11.721,0,0,0,.685-3.875q.071-1.334.074-2.669v-7.306a1.612,1.612,0,0,1,.279-.943.81.81,0,0,1,.67-.386.815.815,0,0,0,.68-.391,1.6,1.6,0,0,0,.281-.943v-.8a1.35,1.35,0,0,0-1.334-1.329m-5.189,11.623a3.185,3.185,0,0,1-2.452,1.117,2.911,2.911,0,0,1-2.669-1.534,6.853,6.853,0,0,1-.767-3.428,6.271,6.271,0,0,1,.81-3.3,2.866,2.866,0,0,1,2.587-1.506,3.162,3.162,0,0,1,2.451,1.178,5.581,5.581,0,0,1,1.038,3.707,5.677,5.677,0,0,1-1.007,3.77" transform="translate(-662.523 -118.449)"/>
      <path id="Path_10" data-name="Path 10" d="M967.2,159.24a6.84,6.84,0,0,0-5.644,2.579,9.058,9.058,0,0,0-1.907,5.936,8.688,8.688,0,0,0,1.969,5.879,7.271,7.271,0,0,0,5.724,2.372,7.089,7.089,0,0,0,4.714-2.06A14.913,14.913,0,0,0,973.6,171.9c.363-.767.1-1.163-.79-1.163h-2.758a2.943,2.943,0,0,1-2.7,1.953,3.388,3.388,0,0,1-2.764-1.278,3.328,3.328,0,0,1-.68-1.209.976.976,0,0,1,.992-1.278h8.3a1.587,1.587,0,0,0,1.056-.368,1.641,1.641,0,0,0,.324-1,9.224,9.224,0,0,0-1.613-5.442,6.609,6.609,0,0,0-5.769-2.871m2.886,6.135a1.022,1.022,0,0,1-.839.373h-5.522a3.975,3.975,0,0,1,1.023-2.124,3.241,3.241,0,0,1,2.482-1.058,3.068,3.068,0,0,1,2.421,1.043,2.434,2.434,0,0,1,.56.851,1.022,1.022,0,0,1-.125.915" transform="translate(-714.339 -118.534)"/>
      <path id="Path_11" data-name="Path 11" d="M1040.712,172.281a.924.924,0,0,1-.732-.388,1.536,1.536,0,0,1-.292-.946V166a14.857,14.857,0,0,0-.156-2.572,4.713,4.713,0,0,0-2.019-3.134,6.612,6.612,0,0,0-7.968.762l-.046-.141a2.061,2.061,0,0,0-1.79-1.258h-2.247a1.314,1.314,0,0,0-.946.386,1.292,1.292,0,0,0-.389.948v.808a1.431,1.431,0,0,0,.327.943,1.035,1.035,0,0,0,.805.389,1,1,0,0,1,.792.386,1.476,1.476,0,0,1,.325.948v6.483a1.5,1.5,0,0,1-.3.946.871.871,0,0,1-.713.389.866.866,0,0,0-.71.389,1.557,1.557,0,0,0-.3.946v.79a1.327,1.327,0,0,0,1.334,1.334h5.113a1.3,1.3,0,0,0,.945-.389,1.276,1.276,0,0,0,.389-.946v-.79a1.557,1.557,0,0,0-.292-.946.866.866,0,0,0-.7-.389.867.867,0,0,1-.711-.389,1.514,1.514,0,0,1-.3-.946V167.01a5.282,5.282,0,0,1,.767-3.068,2.906,2.906,0,0,1,2.574-1.2,2.077,2.077,0,0,1,2.2,1.258,2.565,2.565,0,0,1,.187.767c.043.887.061,1.789.061,2.666v6.979a1.277,1.277,0,0,0,.389.946,1.313,1.313,0,0,0,.946.389h3.147a1.352,1.352,0,0,0,1.334-1.334v-.79a1.506,1.506,0,0,0-.309-.946.88.88,0,0,0-.713-.389" transform="translate(-762.336 -118.576)"/>
      <path id="Path_12" data-name="Path 12" d="M1112.042,169.32l-1.1-.156a2.436,2.436,0,0,0-.946.031c-.278.072-.429.184-.449.327a4.154,4.154,0,0,1-.961,2.28,2.772,2.772,0,0,1-2.155.887,2.953,2.953,0,0,1-2.728-1.534,7.035,7.035,0,0,1-.767-3.538,6.687,6.687,0,0,1,.82-3.535,3.084,3.084,0,0,1,2.825-1.534,2.511,2.511,0,0,1,1.813.716,2.2,2.2,0,0,1,.511.555c.3.851.468,1.35.511,1.506s.491.181,1.38.079l.946-.125a1.559,1.559,0,0,0,1.319-1.506v-2.845a1.321,1.321,0,0,0-1.334-1.334h-.031a2.614,2.614,0,0,0-.977.171c-.276.125-.429.271-.447.437a7.106,7.106,0,0,0-3.786-.961,7.5,7.5,0,0,0-3.863,1.007,6.335,6.335,0,0,0-2.669,2.991,10.808,10.808,0,0,0-.851,4.456,8.96,8.96,0,0,0,1.83,5.815,6.73,6.73,0,0,0,5.537,2.5,6.39,6.39,0,0,0,6.39-4.688c.271-.846.42-1.362.453-1.549s-.394-.335-1.278-.45" transform="translate(-818.142 -118.532)"/>
      <path id="Path_13" data-name="Path 13" d="M1177.134,161.6h-5.113a1.327,1.327,0,0,0-1.334,1.334v.79a1.863,1.863,0,0,0,.235.948.7.7,0,0,0,.591.386.462.462,0,0,1,.447.373,1.437,1.437,0,0,1-.077.884l-1.631,4.668c-.12.35-.273.529-.448.529s-.311-.179-.432-.529l-1.615-4.668a1.678,1.678,0,0,1-.092-.884c.062-.256.194-.373.4-.373s.363-.128.511-.386a1.946,1.946,0,0,0,.22-.948v-.79a1.327,1.327,0,0,0-1.334-1.334h-5.112a1.331,1.331,0,0,0-.946.389,1.278,1.278,0,0,0-.389.946v.79a1.43,1.43,0,0,0,.343.948,1.059,1.059,0,0,0,.821.386,1.566,1.566,0,0,1,.964.373,1.963,1.963,0,0,1,.683.884l4.09,10.762a4.21,4.21,0,0,0-.156.422,8.923,8.923,0,0,1-.821,1.858,1.789,1.789,0,0,1-1.505.654h-.358c-.693-.169-1.168-.286-1.427-.358-.112-.023-.192.087-.23.327a2.908,2.908,0,0,0-.02.913l.125,1.022c.1.877.271,1.352.511,1.426a5.65,5.65,0,0,0,1.859.371,4.468,4.468,0,0,0,3.862-2.25,18.248,18.248,0,0,0,1.258-2.715q.493-1.222.961-2.48l3.722-9.957a2,2,0,0,1,.682-.884,1.577,1.577,0,0,1,.964-.373,1.059,1.059,0,0,0,.82-.386,1.43,1.43,0,0,0,.343-.948v-.79a1.254,1.254,0,0,0-.4-.946,1.278,1.278,0,0,0-.93-.388" transform="translate(-864.233 -120.291)"/>
      <path id="Path_14" data-name="Path 14" d="M297.779,57.576a27.368,27.368,0,0,0,8.024.953,31.379,31.379,0,0,0,7.97-.831,8.351,8.351,0,0,0,4.5-2.607,7.109,7.109,0,0,0,1.426-4.6q0-.8-.089-1.994c-.056-.8-.135-1.662-.243-2.589s-.22-1.843-.345-2.758-.256-1.733-.4-2.449l-4.029,1.534q.238,1.076.468,2.3c.151.808.284,1.58.4,2.3s.21,1.38.276,1.945a10.643,10.643,0,0,1,.107,1.278,2.268,2.268,0,0,1-.974,1.858,7.014,7.014,0,0,1-3.108,1.109,34.652,34.652,0,0,1-5.611.366,26.482,26.482,0,0,1-6.046-.539,5.082,5.082,0,0,1-3.088-1.82,6.107,6.107,0,0,1-.9-3.543,10.437,10.437,0,0,1,.071-1.168c.046-.424.115-.987.2-1.682s.22-1.608.383-2.745l-3.609-.511c-.256,1.319-.46,2.446-.608,3.372s-.256,1.71-.33,2.362a17.345,17.345,0,0,0-.1,1.838,10.319,10.319,0,0,0,1.332,5.557,7.548,7.548,0,0,0,4.325,3.067" transform="translate(-217.447 -30.296)"/>
      <path id="Path_15" data-name="Path 15" d="M329.9,22.949l-2.6-2.569-2.574,2.569,2.574,2.6Z" transform="translate(-241.713 -15.17)"/>
      <path id="Path_16" data-name="Path 16" d="M351.5,22.949l-2.569-2.569-2.607,2.569,2.607,2.6Z" transform="translate(-257.792 -15.17)"/>
      <path id="Path_17" data-name="Path 17" d="M509.37,22.815l-3.144-4.182,9.88-3.282.417-4.448-14.134,4.691-.964,4.062,4.159,5.562c.532.718.943,1.316,1.232,1.789a6.248,6.248,0,0,1,.588,1.166,2.575,2.575,0,0,1,.156.867,1.435,1.435,0,0,1-1.076,1.388,11.551,11.551,0,0,1-3.717.414h-2.7a7.272,7.272,0,0,1-2.812-.435,2.5,2.5,0,0,1-1.393-1.355,6.514,6.514,0,0,1-.381-2.451V10.87l-4.021.519.3,15.874a3.227,3.227,0,0,1-1.022,2.689,5.207,5.207,0,0,1-3.356.89,5.524,5.524,0,0,1-2.117-.348,3.118,3.118,0,0,1-1.373-1.112,10.342,10.342,0,0,1-1.023-1.943l-.726-1.945a11.465,11.465,0,0,0-.885-1.894,8.943,8.943,0,0,0-1.278-1.682,5.84,5.84,0,0,0-1.7-1.217,5.015,5.015,0,0,0-2.17-.452,5.369,5.369,0,0,0-3.474,1.278,12.086,12.086,0,0,0-2.909,3.691l-1.319,2.257a8.243,8.243,0,0,1-1.352,1.927,4.674,4.674,0,0,1-1.58,1.094,4.952,4.952,0,0,1-1.884.345h-37.51a4.519,4.519,0,0,1-3.055-.818,3.6,3.6,0,0,1-.9-2.761V10.87l-4.346.511.419,16.672q.1,4.029,2.032,5.974t5.849,1.945h37.513a7.3,7.3,0,0,0,5.315-2.188,9.325,9.325,0,0,0,.936-1.107,10.352,10.352,0,0,0,2.441,2.255,8.03,8.03,0,0,0,4.448,1.406,5.139,5.139,0,0,0,3.852-1.534,6.121,6.121,0,0,0,1.046-1.465,5.431,5.431,0,0,0,1.6,1.621A7.6,7.6,0,0,0,487.392,36a9.273,9.273,0,0,0,4.118-.746,4.656,4.656,0,0,0,1.861-1.708,4.391,4.391,0,0,0,2.081,1.774,9.805,9.805,0,0,0,3.783.68h4.379a12.272,12.272,0,0,0,4.652-.782,6.107,6.107,0,0,0,2.873-2.28,6.278,6.278,0,0,0,.969-3.528,7.879,7.879,0,0,0-.657-3.157,17.909,17.909,0,0,0-2.083-3.441m-30.023,7.745a3.275,3.275,0,0,1-2.278.792,6,6,0,0,1-3.558-1.278,8.763,8.763,0,0,1-1.444-1.329l.176-.32A9.26,9.26,0,0,1,474.1,25.77a3.021,3.021,0,0,1,2.068-.925,2.8,2.8,0,0,1,1.858.785,5.963,5.963,0,0,1,1.508,2.556l.537,1.493a4.519,4.519,0,0,1-.726.867" transform="translate(-310.985 -8.091)"/>
      <path id="Path_18" data-name="Path 18" d="M861.677,2.569,859.072,0,856.5,2.569l2.572,2.6Z" transform="translate(-637.557)"/>
      <path id="Path_19" data-name="Path 19" d="M883.276,2.569,880.707,0,878.1,2.569l2.607,2.6Z" transform="translate(-653.636)"/>
      <path id="Path_20" data-name="Path 20" d="M884.639,35.973q3.957,0,5.956-2t2-5.956V10.86l-4.029.524.312,15.872a3.262,3.262,0,0,1-1.007,2.692,4.889,4.889,0,0,1-3.231.887H854.634a7.413,7.413,0,0,1-2.467-.33,2.232,2.232,0,0,1-1.278-1.076,4.526,4.526,0,0,1-.381-2.032V15.725l-4.036.452.016,1.876a17,17,0,0,0-5.016,1.733,11.085,11.085,0,0,0-3.737,3.18,6.738,6.738,0,0,0-1.334,4.008,4.972,4.972,0,0,0,1.894,4.136,7.992,7.992,0,0,0,5.084,1.493,19.259,19.259,0,0,0,2.278-.156c.463-.056.936-.128,1.416-.21a5.907,5.907,0,0,0,.355.8,4.857,4.857,0,0,0,2.587,2.221,12.535,12.535,0,0,0,4.619.713Zm-41.084-8.336a6.3,6.3,0,0,1-2.556-.4,1.256,1.256,0,0,1-.851-1.163,2.015,2.015,0,0,1,.851-1.5,7.458,7.458,0,0,1,2.434-1.2,15.809,15.809,0,0,1,3.09-.624l.036,4.622c-.217.036-.442.069-.682.1a18.571,18.571,0,0,1-2.324.156" transform="translate(-622.595 -8.084)"/>
      <path id="Path_21" data-name="Path 21" d="M1096.915,22.815l-3.144-4.179,9.882-3.287.414-4.445-14.134,4.688-.974,4.062,4.169,5.565c.531.713.943,1.311,1.232,1.789a6.822,6.822,0,0,1,.593,1.163,2.727,2.727,0,0,1,.156.872,1.447,1.447,0,0,1-1.076,1.388,11.484,11.484,0,0,1-3.717.412h-2.709a4.575,4.575,0,0,1-3.068-.818,3.517,3.517,0,0,1-.894-2.761V10.87l-4.346.511.435,16.68q.1,4.029,2.029,5.971t5.854,1.945h3.541a12.544,12.544,0,0,0,4.657-.767,6.1,6.1,0,0,0,2.881-2.26,6.251,6.251,0,0,0,.971-3.525,7.888,7.888,0,0,0-.659-3.16,17.708,17.708,0,0,0-2.083-3.441" transform="translate(-803.404 -8.091)"/>
      <path id="Path_22" data-name="Path 22" d="M1182.71,64.529c.486,0,1.023-.023,1.616-.066.511-.043,1.076-.107,1.649-.194a4.141,4.141,0,0,1-.35.557,6.954,6.954,0,0,1-3.453,2.239,37.329,37.329,0,0,1-6.511,1.426l.936,4.617a24.675,24.675,0,0,0,7.643-1.976,9.792,9.792,0,0,0,4.443-3.96,12.632,12.632,0,0,0,1.459-6.355,17.709,17.709,0,0,0-.537-4.466,12.471,12.471,0,0,0-1.534-3.612,7.786,7.786,0,0,0-2.341-2.413,5.5,5.5,0,0,0-6.321.276,7.9,7.9,0,0,0-2.431,3.111,10.486,10.486,0,0,0-.9,4.461,6.327,6.327,0,0,0,1.649,4.778,6.956,6.956,0,0,0,4.987,1.577m-3.067-8.4a3.914,3.914,0,0,1,.608-1.148,2.775,2.775,0,0,1,.884-.746,2.277,2.277,0,0,1,1.061-.256,2.924,2.924,0,0,1,1.754.593,5.26,5.26,0,0,1,1.423,1.616,9.115,9.115,0,0,1,.954,2.326,9.906,9.906,0,0,1,.23,1.109c-.4.056-.8.1-1.184.141q-1.3.12-2.38.12a5.509,5.509,0,0,1-2.76-.511,2.009,2.009,0,0,1-.816-1.84,4.252,4.252,0,0,1,.225-1.391" transform="translate(-875.131 -36.817)"/>
      <g id="Group_75656" data-name="Group 75656" transform="translate(329)">
        <path id="Path_23" data-name="Path 23" d="M54.838,40.722l-1.258-7.03C65.594,31.54,79.807,22.412,84.444,6.87l6.843,2.045A44.108,44.108,0,0,1,75.95,31.093a48.951,48.951,0,0,1-21.122,9.629" transform="translate(-39.884 -5.114)" fill="#dc9170"/>
        <path id="Path_24" data-name="Path 24" d="M54.031,26.192l-2.1-6.286A26.9,26.9,0,0,0,67.5,5.55l6.043,2.717A33.641,33.641,0,0,1,54.031,26.192" transform="translate(-38.656 -4.131)" fill="#cd6b5a"/>
        <rect id="Rectangle_1" data-name="Rectangle 1" width="6.628" height="54.645" transform="translate(0 2.776)" fill="#cd6b5a"/>
        <path id="Path_25" data-name="Path 25" d="M89.016,130.113A39.3,39.3,0,0,0,70.2,119.1a37.985,37.985,0,0,0-15.279-1.092l-1.166-6.526A43.677,43.677,0,0,1,71.9,112.692a45.793,45.793,0,0,1,21.968,12.9Z" transform="translate(-40.018 -82.651)" fill="#cd6b5a"/>
        <rect id="Rectangle_2" data-name="Rectangle 2" width="41.327" height="6.723" transform="translate(13.006 50.432)" fill="#dc9170"/>
      </g>
    </g>
  </g>
</svg>
