<svg xmlns="http://www.w3.org/2000/svg" width="37.976" height="42.053" viewBox="0 0 37.976 42.053">
  <g id="svgexport-17_38_" data-name="svgexport-17 (38)" transform="translate(-24.339 1.059)">
    <path id="Path_25557" data-name="Path 25557" d="M54.5,26.643H52.83a.616.616,0,1,0-1.135,0H47.713a3.986,3.986,0,0,1-.518-1.214l-.239-.976a.813.813,0,0,0-1.58,0l-.239.976a3.987,3.987,0,0,1-.518,1.214H33.937a3,3,0,0,0-2.994,2.994v9.14a5.058,5.058,0,0,1-1.7,1.187.614.614,0,0,0-.092.051.853.853,0,0,0,0,1.42.614.614,0,0,0,.092.051,4.385,4.385,0,0,1,2.629,2.941l.239.976a.813.813,0,0,0,1.58,0l.239-.976a4.385,4.385,0,0,1,2.629-2.941.609.609,0,0,0,.092-.051.853.853,0,0,0,0-1.42.618.618,0,0,0-.092-.051,4.385,4.385,0,0,1-2.629-2.941l-.239-.976a.813.813,0,0,0-1.521-.162V34.7H32.2a.616.616,0,0,0,0-1.232h-.022V29.637a1.765,1.765,0,0,1,1.763-1.763h5.1a.616.616,0,0,0,1.207,0H43.4a5.588,5.588,0,0,1-.894.5.614.614,0,0,0-.092.051.853.853,0,0,0,0,1.42.615.615,0,0,0,.092.051,4.385,4.385,0,0,1,2.629,2.941l.239.976a.813.813,0,0,0,1.58,0l.239-.976a4.385,4.385,0,0,1,2.629-2.941.609.609,0,0,0,.092-.051.853.853,0,0,0,0-1.42.618.618,0,0,0-.092-.051,5.588,5.588,0,0,1-.894-.5H54.5a.336.336,0,0,1,.336.336V39.165a.616.616,0,1,0,1.231,0V28.21A1.569,1.569,0,0,0,54.5,26.643ZM32.9,37.87a5.41,5.41,0,0,0,2.443,2.855A5.409,5.409,0,0,0,32.9,43.579a5.41,5.41,0,0,0-2.443-2.855A5.41,5.41,0,0,0,32.9,37.87Zm13.261-5.885a5.41,5.41,0,0,0-2.443-2.855,5.41,5.41,0,0,0,2.443-2.855,5.41,5.41,0,0,0,2.443,2.855,5.41,5.41,0,0,0-2.443,2.855Zm9.284,9.482a.616.616,0,0,0-.616.616V52.7a.336.336,0,0,1-.336.336H34.459a3.531,3.531,0,0,0-2.285.846V50.414a.616.616,0,0,0-1.231,0v6.137a3.52,3.52,0,0,0,3.517,3.517h8.5V62.9a.938.938,0,0,0,.516.84,1,1,0,0,0,.982-.08L46.4,62.241l1.943,1.421a.942.942,0,0,0,1.5-.76V60.068h3.8a.873.873,0,0,0,.611-1.5,2.849,2.849,0,0,1,.311-4.31,1.568,1.568,0,0,0,1.5-1.563V42.083a.616.616,0,0,0-.616-.616ZM46.766,60.981a.616.616,0,0,0-.727,0l-1.846,1.35V56.973h4.418v5.358Zm6.119-2.145H49.843V56.905a.615.615,0,0,0-.281-1.163H40.519a.616.616,0,1,0,0,1.231h2.443v1.863h-8.5a2.285,2.285,0,1,1,0-4.57H52.885a4.087,4.087,0,0,0,0,4.57Zm9.095-22.608a.619.619,0,0,0-.092-.051,2.242,2.242,0,0,1-1.38-1.533l-.139-.567h0a.729.729,0,0,0-.71-.557h0a.729.729,0,0,0-.709.557l-.139.567a2.242,2.242,0,0,1-1.38,1.533.616.616,0,0,0-.092.051.754.754,0,0,0,0,1.254.612.612,0,0,0,.092.051,2.242,2.242,0,0,1,1.38,1.533l.139.567a.729.729,0,0,0,.709.557h0a.729.729,0,0,0,.71-.557l.139-.567a2.242,2.242,0,0,1,1.38-1.533.613.613,0,0,0,.092-.051.754.754,0,0,0,0-1.254ZM59.659,37.9a3.378,3.378,0,0,0-.947-1.044,3.378,3.378,0,0,0,.947-1.044,3.378,3.378,0,0,0,.947,1.044A3.378,3.378,0,0,0,59.659,37.9ZM29.316,52.183a.614.614,0,0,0-.092-.051,2.242,2.242,0,0,1-1.38-1.533l-.139-.567h0a.729.729,0,0,0-.71-.557h0a.729.729,0,0,0-.709.557l-.139.567a2.242,2.242,0,0,1-1.38,1.533.615.615,0,0,0-.092.051.754.754,0,0,0,0,1.254.617.617,0,0,0,.092.051,2.242,2.242,0,0,1,1.38,1.533l.139.567a.729.729,0,0,0,.709.557h0a.729.729,0,0,0,.71-.557l.139-.567a2.242,2.242,0,0,1,1.38-1.533.611.611,0,0,0,.092-.051.754.754,0,0,0,0-1.254ZM27,53.854a3.378,3.378,0,0,0-.947-1.044A3.377,3.377,0,0,0,27,51.766a3.378,3.378,0,0,0,.947,1.044A3.381,3.381,0,0,0,27,53.854Z" transform="translate(0 -22.85)" fill="#4e4e4e"/>
    <circle id="Ellipse_135" data-name="Ellipse 135" cx="0.616" cy="0.616" r="0.616" transform="translate(34.353 10.908)" fill="#4e4e4e"/>
    <circle id="Ellipse_136" data-name="Ellipse 136" cx="0.616" cy="0.616" r="0.616" transform="translate(36.744 12.291)" fill="#4e4e4e"/>
    <path id="Path_25558" data-name="Path 25558" d="M195.711,189.757a.616.616,0,1,0,.616-.616A.616.616,0,0,0,195.711,189.757Z" transform="translate(-157.326 -174.61)" fill="#4e4e4e"/>
    <circle id="Ellipse_137" data-name="Ellipse 137" cx="0.616" cy="0.616" r="0.616" transform="translate(38.779 18.203) rotate(-67.48)" fill="#4e4e4e"/>
    <circle id="Ellipse_138" data-name="Ellipse 138" cx="0.616" cy="0.616" r="0.616" transform="translate(38.385 19.969)" fill="#4e4e4e"/>
    <path id="Path_25559" data-name="Path 25559" d="M175.681,283.5a.616.616,0,1,0,.616-.616A.616.616,0,0,0,175.681,283.5Z" transform="translate(-138.937 -260.667)" fill="#4e4e4e"/>
    <circle id="Ellipse_139" data-name="Ellipse 139" cx="0.616" cy="0.616" r="0.616" transform="translate(34.353 23.604)" fill="#4e4e4e"/>
    <path id="Path_25560" data-name="Path 25560" d="M113.923,303.983a.616.616,0,1,0-.616.616A.616.616,0,0,0,113.923,303.983Z" transform="translate(-81.11 -279.473)" fill="#4e4e4e"/>
    <circle id="Ellipse_140" data-name="Ellipse 140" cx="0.616" cy="0.616" r="0.616" transform="translate(28.849 23.145) rotate(-9.25)" fill="#4e4e4e"/>
    <path id="Path_25561" data-name="Path 25561" d="M43.466,210.881a.616.616,0,1,0,.616.616.616.616,0,0,0-.616-.616Zm-1.131-1.3a.616.616,0,1,0-.616-.616A.616.616,0,0,0,42.335,209.581Zm0-2.773a.616.616,0,1,0-.616-.616A.616.616,0,0,0,42.335,206.808Z" transform="translate(-15.955 -189.698)" fill="#4e4e4e"/>
    <circle id="Ellipse_141" data-name="Ellipse 141" cx="0.616" cy="0.616" r="0.616" transform="translate(26.886 13.343)" fill="#4e4e4e"/>
    <circle id="Ellipse_142" data-name="Ellipse 142" cx="0.616" cy="0.616" r="0.616" transform="translate(28.76 12.429) rotate(-67.48)" fill="#4e4e4e"/>
    <path id="Path_25562" data-name="Path 25562" d="M308.923,4.719a.616.616,0,1,0-.616-.616A.616.616,0,0,0,308.923,4.719Zm2.39,1.384a.616.616,0,1,0-.616-.616A.616.616,0,0,0,311.313,6.1Z" transform="translate(-260.693 -4.173)" fill="#4e4e4e"/>
    <circle id="Ellipse_143" data-name="Ellipse 143" cx="0.616" cy="0.616" r="0.616" transform="translate(52.221 5.656)" fill="#4e4e4e"/>
    <path id="Path_25563" data-name="Path 25563" d="M281.283,114.656a.616.616,0,1,0,.616-.616A.616.616,0,0,0,281.283,114.656Zm-.41,2.245a.616.616,0,1,0-.616.616A.616.616,0,0,0,280.873,116.9Zm-2.39,1.389a.616.616,0,1,0-.616.616A.616.616,0,0,0,278.483,118.29Zm-2.773.29a.616.616,0,1,0-.616.616A.616.616,0,0,0,275.71,118.58Z" transform="translate(-229.636 -105.665)" fill="#4e4e4e"/>
    <circle id="Ellipse_144" data-name="Ellipse 144" cx="0.616" cy="0.616" r="0.616" transform="translate(42.206 11.445)" fill="#4e4e4e"/>
    <path id="Path_25564" data-name="Path 25564" d="M205.254,42.269a.616.616,0,1,0-.616-.616.616.616,0,0,0,.616.616Zm-1.131-3.764a.616.616,0,1,0,.616.616A.616.616,0,0,0,204.123,38.505Zm1.123-4.076a.616.616,0,1,0-.616-.616.616.616,0,0,0,.616.616Z" transform="translate(-164.483 -31.448)" fill="#4e4e4e"/>
    <circle id="Ellipse_145" data-name="Ellipse 145" cx="0.616" cy="0.616" r="0.616" transform="translate(42.206 -0.117)" fill="#4e4e4e"/>
    <circle id="Ellipse_146" data-name="Ellipse 146" cx="0.616" cy="0.616" r="0.616" transform="translate(44.749 -0.861) rotate(-9.25)" fill="#4e4e4e"/>
  </g>
</svg>
