<svg xmlns="http://www.w3.org/2000/svg" width="33.163" height="31.768" viewBox="0 0 33.163 31.768">
  <path id="Path_2578" data-name="Path 2578" d="M145.129,221.515a2.069,2.069,0,0,1,1.671-1.409l7.9-1.148,3.533-7.153a2.151,2.151,0,0,1,3.709,0l3.533,7.153,7.881,1.148a2.068,2.068,0,0,1,1.144,3.529l-5.713,5.554,1.346,7.86a2.068,2.068,0,0,1-3,2.18l-7.041-3.713-7.062,3.713a2.062,2.062,0,0,1-.962.238,2.1,2.1,0,0,1-1.221-.393,2.075,2.075,0,0,1-.823-2.025l1.346-7.86-5.713-5.554a2.065,2.065,0,0,1-.525-2.121Z" transform="translate(-143.495 -209.245)" fill="none" stroke="#4e4e4e" stroke-width="3"/>
</svg>
