<svg xmlns="http://www.w3.org/2000/svg" width="966.654" height="957.807" viewBox="0 0 966.654 957.807">
  <g id="Topology-1" transform="matrix(0.914, -0.407, 0.407, 0.914, 2.153, 300.609)" opacity="0.1">
    <path id="Vector_90" data-name="Vector 90" d="M216.88,8.6c-99.366,35.916,19.753,149.05-132.289,207.113S6.774,533.57,139.662,536.563s96.373,46.69,229.261,146.655,356.761-38.909,301.092-185.564,0-113.134,55.669-314.86C777.11-3.555,586.611-22.523,449.134,33.745,368.923,62.682,316.247-27.312,216.88,8.6Z" transform="translate(0)" fill="none" stroke="#dc9170" stroke-width="3"/>
    <path id="Vector_91" data-name="Vector 91" d="M55.472,11.577C19.228,24.71,32.56,31.662,16.357,47.259c-19.716,18.98-29.124,68.682,16.2,68.682,37.279,0,26.125,18.106,54.04,26.129s59.572-5.633,59.572-41.587c0-13.5-1.306-33.815,8.577-63.376,5.934-17.749-21.858-46.382-44.206-34.162-20.464,11.19-41.3,3.643-55.07,8.632Z" transform="translate(284.928 290.713)" fill="none" stroke="#dc9170" stroke-width="3"/>
    <path id="Vector_90_-_Vector_91_-_91" data-name="Vector 90 - Vector 91 - 91" d="M202.155,7.969C108.527,41.813,218.029,145.294,78.336,199.5c-140.013,54.511-73.39,295.2,51.537,297.922,124.2,2.721,89.987,44.092,213.332,135.7s329.744-35.884,279.136-172.475c-50.608-134.55-.118-105.923,51.388-292C721.019-2.377,545.312-22.224,418.3,30.039,343.521,57.364,293.74-25.135,202.155,7.969Z" transform="translate(25.958 26.429)" fill="none" stroke="#dc9170" stroke-width="3"/>
    <path id="Vector_90_-_Vector_91_-_182" data-name="Vector 90 - Vector 91 - 182" d="M187.432,7.334c-87.89,31.773,12,125.6-115.349,175.944-127.983,50.957-68.964,272.549,48,275,115.5,2.449,83.6,41.493,197.4,124.741s302.727-32.859,257.18-159.386c-45.548-122.446-.237-98.712,47.107-269.136C664.931-1.2,504.015-21.924,387.471,26.335c-69.348,25.711-116.236-49.293-200.039-19Z" transform="translate(51.914 52.857)" fill="none" stroke="#dc9170" stroke-width="3"/>
    <path id="Vector_90_-_Vector_91_-_273" data-name="Vector 90 - Vector 91 - 273" d="M172.711,6.7C90.56,36.4,180.829,120.578,65.833,167.06-50.12,214.464,1.3,416.957,110.3,419.133c106.813,2.177,77.215,38.895,181.473,113.784S567.487,503.084,527,386.62c-40.487-110.341-.356-91.5,42.826-246.273C608.845-.02,462.721-21.624,356.643,22.631c-63.917,24.1-107.91-43.411-183.931-15.93Z" transform="translate(77.867 79.285)" fill="none" stroke="#dc9170" stroke-width="3"/>
    <path id="Vector_90_-_Vector_91_-_364" data-name="Vector 90 - Vector 91 - 364" d="M158,6.068C81.582,33.7,162.234,108.221,59.587,150.842c-103.924,43.851-60.11,227.245,40.937,229.15,98.121,1.9,70.828,36.3,165.544,102.828s248.693-26.809,213.267-133.209c-35.426-98.236-.474-84.291,38.545-223.411C552.763,1.16,421.431-21.323,325.819,18.927,267.334,41.411,226.235-18.6,158,6.067Z" transform="translate(103.817 105.713)" fill="none" stroke="#dc9170" stroke-width="3"/>
    <path id="Vector_90_-_Vector_91_-_455" data-name="Vector 90 - Vector 91 - 455" d="M143.284,6.057c-70.675,25.56.36,90.429-89.937,129.19-91.894,40.3-55.684,204.593,37.4,206.226,89.429,1.633,64.442,33.7,149.615,91.871S462.04,409.56,431.675,313.223c-30.365-86.131-.593-77.08,34.264-200.549C496.686,2.962,380.145-20.4,295,15.846,241.946,36.717,203.742-15.8,143.284,6.057Z" transform="translate(129.76 132.142)" fill="none" stroke="#dc9170" stroke-width="3"/>
    <path id="Vector_90_-_Vector_91_-_545" data-name="Vector 90 - Vector 91 - 545" d="M128.58,6.782C63.643,30.27,125.061,85.487,47.113,120.387c-79.865,36.745-51.257,181.941,33.87,183.3,80.738,1.36,58.056,31.1,133.686,80.914s194.658-20.759,169.354-107.031c-25.3-74.026-.712-69.869,29.983-177.687C440.617,5.5,338.867-18.74,264.188,13.5c-47.622,19.257-82.932-25.766-135.608-6.72Z" transform="translate(155.695 158.571)" fill="none" stroke="#dc9170" stroke-width="3"/>
    <path id="Vector_90_-_Vector_91_-_636" data-name="Vector 90 - Vector 91 - 636" d="M113.886,7.548c-59.2,21.418-7.4,66.981-73,98.021C-26.945,138.761-5.941,264.858,71.226,265.946c72.046,1.088,51.67,28.5,117.757,69.957s167.641-17.734,147.4-93.942c-20.243-61.921-.831-62.658,25.7-154.824C384.558,8.078,297.6-17.04,233.387,11.2c-42.19,17.644-74.606-19.884-119.5-3.649Z" transform="translate(181.619 184.999)" fill="none" stroke="#dc9170" stroke-width="3"/>
    <path id="Vector_90_-_Vector_91_-_727" data-name="Vector 90 - Vector 91 - 727" d="M99.21,8.373C45.75,27.719,87.933,63.63,34.683,90.809c-55.805,29.639-42.4,136.637,26.8,137.454,63.354.816,45.284,25.9,101.827,59s140.624-14.708,125.441-80.853c-15.182-49.816-.949-55.447,21.42-131.962,18.34-63.731-53.826-89.728-107.572-65.5-36.759,16.03-66.281-14-103.393-.579Z" transform="translate(207.526 211.427)" fill="none" stroke="#dc9170" stroke-width="3"/>
    <path id="Vector_90_-_Vector_91_-_818" data-name="Vector 90 - Vector 91 - 818" d="M84.561,9.285C36.839,26.56,69.406,52.818,28.5,76.137c-43.776,26.086-37.977,113.985,23.269,114.53,54.662.544,38.9,23.3,85.9,48.043s113.607-11.684,103.485-67.765c-10.122-37.711-1.068-48.236,17.139-109.1,14.2-48.4-43.17-75.279-86.45-55.051C140.519,21.21,113.892-1.327,84.561,9.285Z" transform="translate(233.403 237.856)" fill="none" stroke="#dc9170" stroke-width="3"/>
    <path id="Vector_90_-_Vector_91_-_909" data-name="Vector 90 - Vector 91 - 909" d="M69.963,10.328C27.98,25.533,50.929,42.137,22.378,61.6-9.368,84.129-11.173,152.929,42.113,153.2c45.971.272,32.511,20.7,69.969,37.086s86.59-8.658,81.529-54.676C188.55,110,192.424,94.586,206.469,49.373,216.538,16.3,173.955-11.457,141.141,4.767c-25.9,12.8-49.629-2.239-71.178,5.561Z" transform="translate(259.225 264.284)" fill="none" stroke="#dc9170" stroke-width="3"/>
  </g>
</svg>
