<svg xmlns="http://www.w3.org/2000/svg" width="966.654" height="957.807" viewBox="0 0 966.654 957.807">
  <g id="Topology-1" transform="matrix(-0.914, -0.407, 0.407, -0.914, 672.821, 955.734)" opacity="0.3">
    <path id="Vector_90" data-name="Vector 90" d="M216.88,708.52C117.514,672.6,236.634,559.47,84.591,501.406S6.774,183.554,139.662,180.561s96.373-46.69,229.261-146.655S725.684,72.814,670.015,219.469s0,113.134,55.669,314.86c51.425,186.349-139.073,205.317-276.55,149.049C368.923,654.441,316.247,744.435,216.88,708.52Z" transform="translate(0 0)" fill="none" stroke="#fff" stroke-width="3"/>
    <path id="Vector_91" data-name="Vector 91" d="M55.472,132.716C19.228,119.583,32.56,112.631,16.357,97.033c-19.716-18.98-29.124-68.682,16.2-68.682,37.279,0,26.125-18.106,54.04-26.129s59.572,5.633,59.572,41.587c0,13.5-1.306,33.815,8.577,63.376,5.934,17.749-21.858,46.382-44.206,34.162C90.079,130.158,69.24,137.7,55.472,132.716Z" transform="translate(284.928 282.118)" fill="none" stroke="#fff" stroke-width="3"/>
    <path id="Vector_90_-_Vector_91_-_91" data-name="Vector 90 - Vector 91 - 91" d="M202.155,656.158C108.527,622.314,218.029,518.833,78.336,464.63c-140.013-54.511-73.39-295.2,51.537-297.922,124.2-2.721,89.987-44.092,213.332-135.7S672.949,66.893,622.341,203.485c-50.608,134.55-.118,105.923,51.388,292C721.019,666.5,545.312,686.351,418.3,634.087c-74.78-27.324-124.562,55.175-216.146,22.071Z" transform="translate(25.958 26.568)" fill="none" stroke="#fff" stroke-width="3"/>
    <path id="Vector_90_-_Vector_91_-_182" data-name="Vector 90 - Vector 91 - 182" d="M187.432,603.8c-87.89-31.773,12-125.6-115.349-175.944-127.983-50.958-68.964-272.549,48-275,115.5-2.449,83.6-41.493,197.4-124.741S620.217,60.973,574.669,187.5c-45.547,122.446-.237,98.712,47.107,269.136C664.931,612.33,504.015,633.056,387.471,584.8c-69.348-25.711-116.236,49.293-200.039,19Z" transform="translate(51.914 53.135)" fill="none" stroke="#fff" stroke-width="3"/>
    <path id="Vector_90_-_Vector_91_-_273" data-name="Vector 90 - Vector 91 - 273" d="M172.712,551.437c-82.151-29.7,8.117-113.878-106.878-160.359C-50.12,343.673,1.3,141.18,110.3,139c106.813-2.177,77.215-38.895,181.473-113.784S567.487,55.053,527,171.517c-40.487,110.341-.356,91.5,42.826,246.273,39.019,140.367-107.105,161.971-213.183,117.717-63.917-24.1-107.91,43.411-183.931,15.93Z" transform="translate(77.867 79.701)" fill="none" stroke="#fff" stroke-width="3"/>
    <path id="Vector_90_-_Vector_91_-_364" data-name="Vector 90 - Vector 91 - 364" d="M158,499.077C81.582,471.446,162.233,396.923,59.587,354.3c-103.924-43.852-60.11-227.245,40.937-229.15,98.121-1.9,70.828-36.3,165.544-102.828S514.761,49.133,479.335,155.534c-35.426,98.236-.474,84.291,38.545,223.411,34.883,125.04-96.45,147.523-192.061,107.272-58.485-22.484-99.584,37.529-167.824,12.86Z" transform="translate(103.817 106.266)" fill="none" stroke="#fff" stroke-width="3"/>
    <path id="Vector_90_-_Vector_91_-_455" data-name="Vector 90 - Vector 91 - 455" d="M143.284,446.718c-70.675-25.56.36-90.429-89.937-129.19-91.894-40.3-55.684-204.593,37.4-206.226,89.429-1.632,64.442-33.7,149.615-91.871s221.675,23.784,191.31,120.12c-30.365,86.131-.593,77.08,34.264,200.549C496.686,449.813,380.145,473.174,295,436.929c-53.054-20.871-91.258,31.648-151.716,9.79Z" transform="translate(129.76 132.206)" fill="none" stroke="#fff" stroke-width="3"/>
    <path id="Vector_90_-_Vector_91_-_545" data-name="Vector 90 - Vector 91 - 545" d="M128.58,394.361c-64.937-23.489-3.519-78.705-81.467-113.606C-32.752,244.01-4.145,98.814,80.983,97.454c80.738-1.36,58.056-31.1,133.686-80.914S409.327,37.3,384.022,123.571c-25.3,74.026-.712,69.869,29.983,177.687,26.612,94.385-75.138,118.625-149.817,86.384C216.566,368.385,181.256,413.408,128.58,394.361Z" transform="translate(155.695 157.41)" fill="none" stroke="#fff" stroke-width="3"/>
    <path id="Vector_90_-_Vector_91_-_636" data-name="Vector 90 - Vector 91 - 636" d="M113.886,342.007c-59.2-21.418-7.4-66.981-73-98.021C-26.945,210.793-5.941,84.7,71.226,83.608c72.046-1.088,51.67-28.5,117.757-69.957s167.641,17.734,147.4,93.942c-20.243,61.921-.831,62.658,25.7,154.824,22.476,79.058-64.482,104.177-128.695,75.939-42.19-17.644-74.606,19.884-119.5,3.649Z" transform="translate(181.619 182.57)" fill="none" stroke="#fff" stroke-width="3"/>
    <path id="Vector_90_-_Vector_91_-_727" data-name="Vector 90 - Vector 91 - 727" d="M99.21,289.656C45.75,270.31,87.933,234.4,34.683,207.22c-55.805-29.639-42.4-136.637,26.8-137.454,63.354-.816,45.284-25.9,101.827-59S303.938,25.475,288.755,91.62c-15.182,49.816-.949,55.447,21.42,131.962,18.34,63.731-53.826,89.728-107.572,65.5C165.844,273.047,136.323,303.08,99.21,289.656Z" transform="translate(207.526 207.667)" fill="none" stroke="#fff" stroke-width="3"/>
    <path id="Vector_90_-_Vector_91_-_818" data-name="Vector 90 - Vector 91 - 818" d="M84.561,237.314C36.839,220.038,69.406,193.781,28.5,170.462-15.271,144.376-9.473,56.477,51.774,55.932c54.662-.544,38.9-23.3,85.9-48.043S251.279,19.573,241.158,75.654c-10.122,37.711-1.068,48.236,17.139,109.1,14.2,48.4-43.17,75.279-86.45,55.051-31.327-14.417-57.955,8.121-87.286-2.491Z" transform="translate(233.403 232.669)" fill="none" stroke="#fff" stroke-width="3"/>
    <path id="Vector_90_-_Vector_91_-_909" data-name="Vector 90 - Vector 91 - 909" d="M69.963,184.988c-41.983-15.2-19.034-31.809-47.586-51.267C-9.368,111.188-11.173,42.387,42.113,42.115c45.971-.272,32.511-20.7,69.969-37.086s86.59,8.658,81.529,54.676c-5.061,25.606-1.187,41.026,12.858,86.238,10.069,33.076-32.514,60.831-65.328,44.606-25.9-12.8-49.629,2.239-71.178-5.561Z" transform="translate(259.225 257.522)" fill="none" stroke="#fff" stroke-width="3"/>
  </g>
</svg>
